<svg width="20" height="20" viewBox="0 0 20 20" fill="none" xmlns="http://www.w3.org/2000/svg">
<path d="M13.6379 5.3461C12.0629 5.3461 11.3973 6.09766 10.3004 6.09766C9.17579 6.09766 8.31797 5.35157 6.95313 5.35157C5.61719 5.35157 4.19258 6.16719 3.2879 7.55665C2.01758 9.51602 2.23321 13.2063 4.29063 16.35C5.02657 17.4754 6.00938 18.7375 7.29844 18.7512H7.32188C8.44219 18.7512 8.775 18.0176 10.3168 18.009H10.3402C11.859 18.009 12.1637 18.7469 13.2793 18.7469H13.3027C14.5918 18.7332 15.6273 17.3348 16.3633 16.2137C16.893 15.4074 17.0898 15.0027 17.4961 14.0906C14.5199 12.9609 14.0418 8.7418 16.9852 7.12423C16.0867 5.99923 14.8242 5.34766 13.634 5.34766L13.6379 5.3461Z" />
<path d="M13.291 1.25C12.3535 1.31367 11.2598 1.91055 10.6192 2.68984C10.0379 3.39609 9.55978 4.44375 9.74728 5.45977H9.82228C10.8207 5.45977 11.8426 4.85859 12.4395 4.08828C13.0145 3.35508 13.4504 2.31602 13.291 1.25Z" />
</svg>
