<svg width="20" height="20" viewBox="0 0 20 20" fill="none" xmlns="http://www.w3.org/2000/svg">
<path d="M2.04958 13.9147C2.07307 13.8441 2.1626 13.823 2.21517 13.8755L6.14757 17.808C6.20015 17.8605 6.179 17.95 6.10846 17.9735L0.971161 19.6843C0.580371 19.8145 0.208659 19.4428 0.338797 19.052L2.04958 13.9147ZM19.4283 5.13716L18.7829 5.78257C18.7048 5.86067 18.5782 5.86067 18.5001 5.78257L14.2406 1.52306C14.1624 1.44495 14.1624 1.31832 14.2406 1.24022L14.886 0.594806C15.6786 -0.198269 16.9639 -0.198269 17.7564 0.594806L19.4283 2.26667C20.2151 3.06191 20.2151 4.34216 19.4283 5.13716Z" />
<path d="M7.42739 17.1321C7.34957 17.2099 7.22349 17.2102 7.14527 17.1328L2.87013 12.9009C2.79134 12.8229 2.79102 12.6958 2.8694 12.6174L13.2143 2.27249C13.2924 2.19433 13.4192 2.1944 13.4973 2.27264L17.7464 6.53056C17.8243 6.60869 17.8243 6.7352 17.7462 6.81325L7.42739 17.1321Z" />
</svg>
