<svg width="18" height="18" viewBox="0 0 18 18" xmlns="http://www.w3.org/2000/svg">
<path d="M13.1667 2.5001H16.5C16.721 2.5001 16.933 2.5879 17.0893 2.74418C17.2456 2.90046 17.3334 3.11242 17.3334 3.33344V16.6668C17.3334 16.8878 17.2456 17.0997 17.0893 17.256C16.933 17.4123 16.721 17.5001 16.5 17.5001H1.50002C1.27901 17.5001 1.06704 17.4123 0.910765 17.256C0.754484 17.0997 0.666687 16.8878 0.666687 16.6668V3.33344C0.666687 3.11242 0.754484 2.90046 0.910765 2.74418C1.06704 2.5879 1.27901 2.5001 1.50002 2.5001H4.83335V0.833435H6.50002V2.5001H11.5V0.833435H13.1667V2.5001ZM11.5 4.16677H6.50002V5.83344H4.83335V4.16677H2.33335V7.5001H15.6667V4.16677H13.1667V5.83344H11.5V4.16677ZM15.6667 9.16677H2.33335V15.8334H15.6667V9.16677Z"/>
</svg>
