<svg width="20" height="16" viewBox="0 0 20 16" xmlns="http://www.w3.org/2000/svg">
<path d="M14.4692 7.20415C15.6392 6.04332 17.5358 6.04332 18.7058 7.20415C19.8758 8.36582 19.8758 10.2491 18.7058 11.41L14.1667 15.9167L9.6275 11.41C8.4575 10.2491 8.4575 8.36582 9.6275 7.20415C10.7975 6.04332 12.6942 6.04332 13.8642 7.20415L14.1667 7.50415L14.4692 7.20415ZM16.0358 1.96415C16.8192 2.74998 17.2883 3.72915 17.4433 4.74582C16.3325 4.53915 15.1608 4.73748 14.1667 5.33998C12.375 4.25415 10.005 4.48165 8.45333 6.02165C6.6775 7.78415 6.62833 10.6175 8.305 12.4391L8.45333 12.5933L10.4708 14.5967L9.16667 15.9042L2.1 8.82748C0.347501 6.86415 0.413335 3.84915 2.2975 1.96415C4.185 0.0774834 7.20417 0.0141498 9.1675 1.77415C11.125 0.0166498 14.15 0.0749833 16.0358 1.96415Z"/>
</svg>
