<svg width="24" height="19" viewBox="0 0 24 19" fill="none" xmlns="http://www.w3.org/2000/svg">
<path d="M4.873 9.67143e-09H19.127C19.2848 -2.19333e-05 19.4403 0.0372955 19.581 0.108902C19.7216 0.180508 19.8432 0.284371 19.936 0.412L23.759 5.668C23.827 5.76152 23.8604 5.8757 23.8537 5.99112C23.8469 6.10653 23.8004 6.21603 23.722 6.301L12.367 18.602C12.277 18.6992 12.1522 18.7568 12.0198 18.7621C11.8874 18.7673 11.7584 18.7198 11.661 18.63C11.654 18.624 7.861 14.515 0.278003 6.301C0.199607 6.21603 0.153076 6.10653 0.14633 5.99112C0.139584 5.8757 0.173039 5.76152 0.241003 5.668L4.064 0.412C4.15678 0.284371 4.27845 0.180508 4.41905 0.108902C4.55966 0.0372955 4.71521 -2.19333e-05 4.873 9.67143e-09ZM5.383 2L2.583 5.85L12 16.05L21.417 5.85L18.617 2H5.383Z" fill="#22C55E"/>
</svg>
