<svg width="20" height="20" viewBox="0 0 20 20" fill="none" xmlns="http://www.w3.org/2000/svg">
<g clip-path="url(#clip0_1709_699)">
<path d="M11.8031 11.571C12.0268 11.7719 12.3636 11.7719 12.5873 11.571C16.1542 8.36075 18.6421 6.66275 18.6421 3.88962C18.6421 1.67236 17.1304 0 15.1256 0C13.6226 0 12.7097 0.950623 12.1951 1.79489C11.6806 0.950775 10.7678 0 9.26483 0C7.25983 0 5.74829 1.67236 5.74829 3.88977C5.74829 6.66275 8.23624 8.3609 11.8031 11.571Z" />
<path d="M18.5747 12.6974C18.1175 12.2403 17.3673 12.252 16.9218 12.7209L15.1988 14.5729C14.0747 15.7811 13.7015 16.4836 12.6671 16.4836H8.69339C8.36517 16.4836 8.1073 16.2257 8.1073 15.8975C8.1073 15.5693 8.36517 15.3114 8.69339 15.3114H11.6824C12.3297 15.3114 12.8545 14.7866 12.8545 14.1392C12.8545 13.4918 12.3297 12.967 11.6824 12.967H10.0999C10.0226 12.9345 9.95407 12.9055 9.87686 12.8729C8.32962 11.3495 5.87998 11.3028 4.28604 12.7092L2.65671 14.1392H1.7189C1.39069 14.1392 1.13281 14.3971 1.13281 14.7253V19.414C1.13281 19.7377 1.39526 20.0001 1.7189 20.0001H12.2684C13.5597 20.0001 14.7755 19.3921 15.5504 18.359L18.6801 14.1861C19.0201 13.7407 18.9732 13.096 18.5747 12.6974Z" />
</g>
<defs>
<clipPath id="clip0_1709_699">
<rect width="20" height="20.0001" fill="white"/>
</clipPath>
</defs>
</svg>
