<svg width="21" height="21" viewBox="0 0 21 21" fill="none" xmlns="http://www.w3.org/2000/svg">
<path d="M10.5 20.9167C4.74689 20.9167 0.0833435 16.2531 0.0833435 10.5C0.0833435 4.74687 4.74689 0.0833282 10.5 0.0833282C16.2531 0.0833282 20.9167 4.74687 20.9167 10.5C20.9167 16.2531 16.2531 20.9167 10.5 20.9167ZM15.5208 15.7875C16.7782 14.5957 17.5702 12.9951 17.7549 11.2725C17.9395 9.54989 17.5048 7.81781 16.5286 6.38656C15.5524 4.95532 14.0984 3.91843 12.4272 3.46165C10.7561 3.00487 8.97685 3.15805 7.40834 3.89374L8.42397 5.72187C9.2166 5.37738 10.0825 5.23554 10.9436 5.30915C11.8047 5.38276 12.634 5.66951 13.3567 6.14353C14.0793 6.61755 14.6727 7.26396 15.0832 8.02448C15.4937 8.78501 15.7086 9.63574 15.7083 10.5H12.5833L15.5208 15.7875ZM13.5917 17.1062L12.5761 15.2781C11.7834 15.6226 10.9175 15.7644 10.0564 15.6908C9.19529 15.6172 8.36603 15.3305 7.64336 14.8565C6.9207 14.3824 6.32736 13.736 5.91682 12.9755C5.50627 12.215 5.29144 11.3643 5.29168 10.5H8.41668L5.47918 5.21249C4.22177 6.4043 3.4298 8.00488 3.24514 9.72749C3.06048 11.4501 3.49521 13.1822 4.47143 14.6134C5.44766 16.0447 6.90159 17.0816 8.57277 17.5383C10.2439 17.9951 12.0232 17.8419 13.5917 17.1062V17.1062Z" fill="#D9BA77"/>
</svg>
