<svg width="16" height="20" viewBox="0 0 16 20" xmlns="http://www.w3.org/2000/svg">
<path d="M7.99998 0.833443L15.9166 5.41678V14.5834L7.99998 19.1668L0.083313 14.5834V5.41678L7.99998 0.833443ZM7.99998 2.75928L1.74998 6.37761V13.6226L7.99998 17.2409L14.25 13.6226V6.37761L7.99998 2.75928ZM7.99998 13.3334C7.11592 13.3334 6.26808 12.9823 5.64296 12.3571C5.01784 11.732 4.66665 10.8842 4.66665 10.0001C4.66665 9.11605 5.01784 8.26821 5.64296 7.64309C6.26808 7.01797 7.11592 6.66678 7.99998 6.66678C8.88403 6.66678 9.73188 7.01797 10.357 7.64309C10.9821 8.26821 11.3333 9.11605 11.3333 10.0001C11.3333 10.8842 10.9821 11.732 10.357 12.3571C9.73188 12.9823 8.88403 13.3334 7.99998 13.3334ZM7.99998 11.6668C8.44201 11.6668 8.86593 11.4912 9.17849 11.1786C9.49105 10.8661 9.66665 10.4421 9.66665 10.0001C9.66665 9.55808 9.49105 9.13416 9.17849 8.8216C8.86593 8.50904 8.44201 8.33344 7.99998 8.33344C7.55795 8.33344 7.13403 8.50904 6.82147 8.8216C6.50891 9.13416 6.33331 9.55808 6.33331 10.0001C6.33331 10.4421 6.50891 10.8661 6.82147 11.1786C7.13403 11.4912 7.55795 11.6668 7.99998 11.6668Z" />
</svg>
