<svg width="39" height="39" viewBox="0 0 39 39" fill="none" xmlns="http://www.w3.org/2000/svg">
<path d="M14.8443 33.7567V28.7879C14.8443 27.5195 15.8801 26.4912 17.1578 26.4912H21.8283C22.4419 26.4912 23.0303 26.7332 23.4641 27.1639C23.898 27.5946 24.1417 28.1788 24.1417 28.7879V33.7567C24.1379 34.284 24.3462 34.7911 24.7204 35.1653C25.0947 35.5395 25.6039 35.75 26.1351 35.75H29.3215C30.8097 35.7538 32.2383 35.1696 33.292 34.1263C34.3456 33.083 34.9378 31.6663 34.9378 30.189V16.0336C34.9378 14.8402 34.4049 13.7082 33.4828 12.9426L22.6431 4.34829C20.7575 2.84141 18.0559 2.89007 16.2266 4.46384L5.6342 12.9426C4.66851 13.6857 4.09133 14.821 4.06281 16.0336V30.1745C4.06281 33.2538 6.5773 35.75 9.67909 35.75H12.7928C13.896 35.75 14.7927 34.8663 14.8007 33.7711L14.8443 33.7567Z" />
</svg>
