<svg width="19" height="22" viewBox="0 0 19 22" xmlns="http://www.w3.org/2000/svg">
<path d="M9.49969 0C10.1563 0 10.8065 0.129329 11.4131 0.380602C12.0197 0.631876 12.5709 1.00017 13.0352 1.46447C13.4995 1.92876 13.8678 2.47995 14.1191 3.08658C14.3704 3.69321 14.4997 4.34339 14.4997 5V9C14.4997 10.3261 13.9729 11.5979 13.0352 12.5355C12.0975 13.4732 10.8258 14 9.49969 14C8.1736 14 6.90184 13.4732 5.96415 12.5355C5.02647 11.5979 4.49969 10.3261 4.49969 9V5C4.49969 3.67392 5.02647 2.40215 5.96415 1.46447C6.90184 0.526784 8.1736 0 9.49969 0ZM0.554688 10H2.56969C2.81198 11.6648 3.64556 13.1867 4.91792 14.2873C6.19028 15.3879 7.81637 15.9936 9.49869 15.9936C11.181 15.9936 12.8071 15.3879 14.0795 14.2873C15.3518 13.1867 16.1854 11.6648 16.4277 10H18.4437C18.2163 12.0287 17.3063 13.9199 15.8629 15.3635C14.4195 16.8071 12.5284 17.7174 10.4997 17.945V22H8.49969V17.945C6.47082 17.7176 4.57947 16.8074 3.13586 15.3638C1.69226 13.9202 0.7821 12.0289 0.554688 10Z"/>
</svg>
