<svg width="20" height="20" viewBox="0 0 20 20" xmlns="http://www.w3.org/2000/svg">
<path d="M11.0603 6.10999L12.4753 7.52499C13.1253 8.17501 13.641 8.94671 13.9928 9.79604C14.3447 10.6454 14.5258 11.5557 14.5258 12.475C14.5258 13.3943 14.3447 14.3046 13.9928 15.1539C13.641 16.0033 13.1253 16.775 12.4753 17.425L12.1213 17.778C10.8084 19.0908 9.02787 19.8283 7.17126 19.8283C5.31465 19.8283 3.53408 19.0908 2.22126 17.778C0.908434 16.4652 0.170898 14.6846 0.170898 12.828C0.170898 10.9714 0.908434 9.19081 2.22126 7.87799L3.63626 9.29299C3.16863 9.75654 2.79716 10.3079 2.54318 10.9154C2.28921 11.5229 2.15773 12.1746 2.15628 12.833C2.15484 13.4915 2.28347 14.1437 2.53478 14.7523C2.78609 15.3609 3.15514 15.9139 3.62074 16.3795C4.08633 16.8451 4.63931 17.2141 5.24791 17.4655C5.85652 17.7168 6.50877 17.8454 7.16722 17.844C7.82567 17.8425 8.47735 17.711 9.08485 17.4571C9.69235 17.2031 10.2437 16.8316 10.7073 16.364L11.0613 16.01C11.9986 15.0724 12.5252 13.8008 12.5252 12.475C12.5252 11.1492 11.9986 9.87763 11.0613 8.93999L9.64626 7.52499L11.0613 6.11099L11.0603 6.10999ZM17.7783 12.121L16.3643 10.707C16.8319 10.2434 17.2034 9.69208 17.4573 9.08458C17.7113 8.47708 17.8428 7.8254 17.8442 7.16695C17.8457 6.5085 17.717 5.85625 17.4657 5.24765C17.2144 4.63904 16.8454 4.08607 16.3798 3.62047C15.9142 3.15487 15.3612 2.78583 14.7526 2.53451C14.144 2.2832 13.4917 2.15457 12.8333 2.15602C12.1748 2.15746 11.5232 2.28894 10.9157 2.54292C10.3082 2.79689 9.75681 3.16836 9.29326 3.63599L8.93926 3.98999C8.0019 4.92763 7.47532 6.19917 7.47532 7.52499C7.47532 8.85081 8.0019 10.1223 8.93926 11.06L10.3543 12.475L8.93926 13.889L7.52526 12.475C6.87517 11.825 6.35949 11.0533 6.00766 10.2039C5.65583 9.35461 5.47475 8.4443 5.47475 7.52499C5.47475 6.60567 5.65583 5.69536 6.00766 4.84604C6.35949 3.99671 6.87517 3.22501 7.52526 2.57499L7.87926 2.22199C9.19208 0.909167 10.9726 0.171631 12.8293 0.171631C14.6859 0.171631 16.4664 0.909167 17.7793 2.22199C19.0921 3.53481 19.8296 5.31538 19.8296 7.17199C19.8296 9.0286 19.0921 10.8092 17.7793 12.122L17.7783 12.121Z"/>
</svg>
