<svg width="16" height="16" viewBox="0 0 16 16" xmlns="http://www.w3.org/2000/svg">
<path d="M12.5833 15.5001C11.8098 15.5001 11.0679 15.1928 10.5209 14.6459C9.97396 14.0989 9.66667 13.357 9.66667 12.5835C9.66667 11.8099 9.97396 11.068 10.5209 10.5211C11.0679 9.97408 11.8098 9.66679 12.5833 9.66679C13.3569 9.66679 14.0987 9.97408 14.6457 10.5211C15.1927 11.068 15.5 11.8099 15.5 12.5835C15.5 13.357 15.1927 14.0989 14.6457 14.6459C14.0987 15.1928 13.3569 15.5001 12.5833 15.5001ZM12.5833 13.8335C12.9149 13.8335 13.2328 13.7018 13.4672 13.4673C13.7016 13.2329 13.8333 12.915 13.8333 12.5835C13.8333 12.2519 13.7016 11.934 13.4672 11.6996C13.2328 11.4652 12.9149 11.3335 12.5833 11.3335C12.2518 11.3335 11.9339 11.4652 11.6995 11.6996C11.465 11.934 11.3333 12.2519 11.3333 12.5835C11.3333 12.915 11.465 13.2329 11.6995 13.4673C11.9339 13.7018 12.2518 13.8335 12.5833 13.8335ZM3.41667 6.33346C3.03364 6.33346 2.65437 6.25801 2.30051 6.11144C1.94664 5.96486 1.62511 5.75002 1.35427 5.47918C1.08343 5.20835 0.868594 4.88682 0.722018 4.53295C0.575442 4.17908 0.5 3.79981 0.5 3.41679C0.5 3.03377 0.575442 2.65449 0.722018 2.30063C0.868594 1.94676 1.08343 1.62523 1.35427 1.35439C1.62511 1.08356 1.94664 0.868716 2.30051 0.72214C2.65437 0.575564 3.03364 0.500122 3.41667 0.500122C4.19021 0.500122 4.93208 0.807413 5.47906 1.35439C6.02604 1.90138 6.33333 2.64324 6.33333 3.41679C6.33333 4.19034 6.02604 4.9322 5.47906 5.47918C4.93208 6.02616 4.19021 6.33346 3.41667 6.33346ZM3.41667 4.66679C3.74819 4.66679 4.06613 4.53509 4.30055 4.30067C4.53497 4.06625 4.66667 3.74831 4.66667 3.41679C4.66667 3.08527 4.53497 2.76733 4.30055 2.53291C4.06613 2.29848 3.74819 2.16679 3.41667 2.16679C3.08515 2.16679 2.7672 2.29848 2.53278 2.53291C2.29836 2.76733 2.16667 3.08527 2.16667 3.41679C2.16667 3.74831 2.29836 4.06625 2.53278 4.30067C2.7672 4.53509 3.08515 4.66679 3.41667 4.66679ZM13.8925 0.929289L15.0708 2.10762L2.10833 15.071L0.93 13.8926L13.8917 0.929289H13.8925Z"/>
</svg>
