<svg width="12" height="14" viewBox="0 0 12 14" xmlns="http://www.w3.org/2000/svg">
<path d="M0.752005 0.438998L11.26 6.569C11.3353 6.61308 11.3978 6.6761 11.4412 6.7518C11.4846 6.8275 11.5074 6.91324 11.5074 7.0005C11.5074 7.08776 11.4846 7.17349 11.4412 7.24919C11.3978 7.32489 11.3353 7.38791 11.26 7.432L0.752005 13.562C0.675872 13.6064 0.589347 13.6299 0.501201 13.6301C0.413054 13.6304 0.326417 13.6073 0.250072 13.5632C0.173727 13.5191 0.110387 13.4557 0.0664714 13.3793C0.0225557 13.3028 -0.000374559 13.2161 4.62757e-06 13.128V0.870997C-2.14464e-05 0.78302 0.0231662 0.696594 0.0672258 0.620445C0.111285 0.544296 0.174657 0.48112 0.250943 0.437297C0.327228 0.393473 0.413726 0.370554 0.501702 0.370852C0.589679 0.371151 0.676018 0.394657 0.752005 0.438998Z"/>
</svg>
