<svg width="20" height="20" viewBox="0 0 20 20" fill="none" xmlns="http://www.w3.org/2000/svg">
<g clip-path="url(#clip0_1709_685)">
<path d="M19.675 13.8439L18.1747 13.0977C17.5771 12.793 17.2656 12.1953 17.2656 11.5157V8.5274C17.2656 7.89462 17.1133 7.26184 16.832 6.68765L13.5281 0.806149C13.1725 0.0331384 12.2102 -0.239078 11.5022 0.233029C10.9515 0.600002 10.7378 1.30526 10.9915 1.91623L14.2305 8.28128C14.2421 8.28128 14.2305 8.29303 14.2421 8.29303C14.3007 8.4804 14.3359 8.66793 14.3359 8.86721V12.3828C14.3359 12.7109 14.0146 12.9688 13.6864 12.9688C13.3583 12.9688 13.1641 12.7109 13.1641 12.3828V10.0391C13.1641 9.39181 12.6395 8.86721 11.9922 8.86721C11.3449 8.86721 10.8203 9.39181 10.8203 10.0391V14.1707C10.8203 15.4593 11.4618 16.6446 12.594 17.2599L17.5302 19.9414C17.6122 19.9765 17.6942 20 17.7879 20C17.8258 20 17.8636 19.9962 17.9007 19.9889C18.1065 19.948 18.2744 19.7983 18.3389 19.5987L19.9715 14.5487C20.0607 14.2728 19.9345 13.973 19.675 13.8439Z" />
<path d="M8.00785 8.86712C7.36058 8.86712 6.83598 9.39172 6.83598 10.039V12.3828C6.83598 12.7108 6.64173 12.9687 6.31367 12.9687C5.98545 12.9687 5.6641 12.7108 5.6641 12.3828V8.86712C5.6641 8.66784 5.69935 8.48047 5.75795 8.29294C5.76954 8.29294 5.75795 8.28119 5.76954 8.28119L9.00852 1.91613C9.26228 1.30516 9.04835 0.599901 8.49781 0.232927C7.78981 -0.239028 6.82759 0.033189 6.4719 0.806048L3.16807 6.6874C2.8867 7.26159 2.73442 7.89453 2.73442 8.52731V11.5156C2.73442 12.1952 2.42298 12.7929 1.8253 13.0976L0.325053 13.8438C0.0655009 13.9729 -0.0606893 14.2726 0.0285747 14.5486L1.66096 19.5985C1.7255 19.7981 1.8935 19.9479 2.09919 19.9888C2.13642 19.9961 2.17427 20 2.21211 20C2.3058 20 2.38789 19.9765 2.46983 19.9414L7.40589 17.2596C8.53825 16.6445 9.17973 15.4592 9.17973 14.1706V10.039C9.17973 9.39172 8.65513 8.86712 8.00785 8.86712Z" />
</g>
<defs>
<clipPath id="clip0_1709_685">
<rect width="20" height="20" fill="white"/>
</clipPath>
</defs>
</svg>
