<svg width="12" height="15" viewBox="0 0 12 15" xmlns="http://www.w3.org/2000/svg">
<path d="M9.74505 3.97869L10.7137 3.01002L11.6564 3.95269L10.6877 4.92135C11.6449 6.11947 12.107 7.6386 11.9791 9.16678C11.8512 10.6949 11.143 12.1161 10 13.1385C8.85704 14.1609 7.36596 14.7067 5.83304 14.6641C4.30012 14.6214 2.84172 13.9934 1.75736 12.909C0.673004 11.8247 0.0449996 10.3663 0.00232589 8.83336C-0.0403479 7.30044 0.505548 5.80937 1.5279 4.66636C2.55025 3.52336 3.97145 2.81519 5.49963 2.6873C7.0278 2.55941 8.54694 3.02151 9.74505 3.97869ZM5.99971 13.3334C6.61255 13.3334 7.21938 13.2126 7.78557 12.9781C8.35176 12.7436 8.86621 12.3999 9.29955 11.9665C9.73289 11.5332 10.0766 11.0187 10.3112 10.4525C10.5457 9.88636 10.6664 9.27952 10.6664 8.66669C10.6664 8.05385 10.5457 7.44702 10.3112 6.88083C10.0766 6.31464 9.73289 5.8002 9.29955 5.36686C8.86621 4.93352 8.35176 4.58977 7.78557 4.35525C7.21938 4.12073 6.61255 4.00002 5.99971 4.00002C4.76204 4.00002 3.57505 4.49169 2.69988 5.36686C1.82471 6.24203 1.33305 7.42901 1.33305 8.66669C1.33305 9.90436 1.82471 11.0913 2.69988 11.9665C3.57505 12.8417 4.76204 13.3334 5.99971 13.3334ZM5.33305 5.33335H6.66638V9.33335H5.33305V5.33335ZM3.33305 0.666687H8.66638V2.00002H3.33305V0.666687Z"/>
</svg>
