<svg width="20" height="20" viewBox="0 0 20 20" fill="none" xmlns="http://www.w3.org/2000/svg">
<g id="Iconly/Bold/Send">
<g id="Send">
<path id="Send_2" d="M17.8631 2.15161C17.4463 1.72379 16.8294 1.56441 16.2541 1.73218L2.84032 5.6329C2.23341 5.80151 1.80323 6.28553 1.68735 6.90042C1.56897 7.52621 1.98247 8.32062 2.52269 8.65281L6.71691 11.2306C7.14709 11.4949 7.70231 11.4286 8.05829 11.0696L12.8611 6.23688C13.1029 5.98522 13.503 5.98522 13.7448 6.23688C13.9866 6.48015 13.9866 6.87441 13.7448 7.12607L8.93365 11.9596C8.57684 12.3178 8.51014 12.8756 8.77275 13.3085L11.3355 17.5448C11.6356 18.0481 12.1525 18.3333 12.7194 18.3333C12.7861 18.3333 12.8611 18.3333 12.9278 18.3249C13.5781 18.241 14.0949 17.7964 14.2867 17.1673L18.2633 3.77062C18.4384 3.20019 18.28 2.57943 17.8631 2.15161Z" fill="currentColor"/>
</g>
</g>
</svg>
