<svg width="20" height="20" viewBox="0 0 20 20" fill="none" xmlns="http://www.w3.org/2000/svg">
<path d="M17.0715 2.92881C13.1662 -0.976054 6.83431 -0.976489 2.92857 2.92881C-0.976733 6.83412 -0.976298 13.166 2.92857 17.0717C6.83387 20.9762 13.1657 20.9766 17.0715 17.0717C20.9764 13.166 20.9759 6.83455 17.0715 2.92881ZM11.304 14.3482C11.304 15.0686 10.72 15.6526 9.99959 15.6526C9.27914 15.6526 8.69522 15.0686 8.69522 14.3482V9.13069C8.69522 8.41024 9.27914 7.82631 9.99959 7.82631C10.72 7.82631 11.304 8.41024 11.304 9.13069V14.3482ZM9.97655 6.90107C9.22523 6.90107 8.72435 6.36889 8.74 5.71192C8.72435 5.02321 9.22523 4.50711 9.99177 4.50711C10.7587 4.50711 11.244 5.02364 11.2601 5.71192C11.2596 6.36889 10.7592 6.90107 9.97655 6.90107Z" fill="currentColor"/>
</svg>
