<svg width="24" height="24" viewBox="0 0 24 24" fill="none" xmlns="http://www.w3.org/2000/svg">
<g id="Iconly/Light/Volume Off">
<g id="Volume Off">
<path id="Stroke 1" d="M14.5329 9.46607L7.71357 16.2859C7.53632 16.1833 7.36841 16.118 7.21915 16.1086C5.92245 16.0153 5.4187 16.1646 4.70971 15.5582C3.94476 14.9051 4.00073 13.1605 4.00073 11.8824C4.00073 10.6043 3.94476 8.85965 4.70971 8.20659C5.4187 7.60018 5.92245 7.75878 7.21915 7.65615C8.51584 7.55353 11.2585 3.59784 13.3761 4.84799C14.2344 5.5477 14.4676 6.85382 14.5329 9.46607Z" stroke-width="1.5" stroke-linecap="round" stroke-linejoin="round"/>
<path id="Stroke 3" d="M14.5329 13.9165C14.4956 16.79 14.2717 18.1894 13.3761 18.9171C12.3966 19.4955 11.2865 18.9637 10.2417 18.208" fill="none" stroke-width="1.5" stroke-linecap="round" stroke-linejoin="round"/>
<path id="Stroke 5" d="M4.00119 19.9995L7.71403 16.2864L14.5333 9.46657L20 3.99951" stroke-width="1.5" stroke-linecap="round" stroke-linejoin="round"/>
</g>
</g>
</svg>
